<svg xmlns="http://www.w3.org/2000/svg" width="24" height="24" viewBox="0 0 24 24"><path d="M8 10.5c0 .827-.673 1.5-1.5 1.5s-1.5-.673-1.5-1.5.673-1.5 1.5-1.5 1.5.673 1.5 1.5zm16 6.216c0 1.587-.56 2.591-1.749 3.179-.143.071-.296.105-.449.105-.242 0-.482-.087-.672-.255l-3.109-2.745c-.558-.494-1.044-1.004-2.404-1.004h-7.233c-1.36 0-1.847.51-2.404 1.004l-3.11 2.745c-.188.168-.429.255-.672.255-.152 0-.307-.034-.449-.105-1.189-.588-1.749-1.592-1.749-3.178 0-2.062.945-5.461 2.681-9.857.822-2.083 2.292-2.86 3.695-2.86.656 0 1.298.17 1.853.456 2.424 1.249 5.17 1.223 7.544 0 .553-.286 1.195-.456 1.851-.456 1.403 0 2.874.777 3.696 2.86 1.735 4.395 2.68 7.794 2.68 9.856zm-15-6.216c0-1.381-1.119-2.5-2.5-2.5s-2.5 1.119-2.5 2.5 1.119 2.5 2.5 2.5 2.5-1.119 2.5-2.5zm4-2.5c0-.552-.447-1-1-1s-1 .448-1 1 .447 1 1 1 1-.448 1-1zm3.5 2.5c0-.415-.336-.75-.75-.75s-.75.335-.75.75.336.75.75.75.75-.335.75-.75zm1.75 1.75c0-.415-.336-.75-.75-.75s-.75.335-.75.75.336.75.75.75.75-.335.75-.75zm0-3.531c0-.415-.336-.75-.75-.75s-.75.335-.75.75.336.75.75.75.75-.336.75-.75zm1.734 1.781c0-.415-.336-.75-.75-.75s-.75.335-.75.75.336.75.75.75.75-.335.75-.75z"/></svg>