<?xml version="1.0" encoding="iso-8859-1"?>
<!-- Generator: Adobe Illustrator 19.0.0, SVG Export Plug-In . SVG Version: 6.00 Build 0)  -->
<svg version="1.1" id="Capa_1" xmlns="http://www.w3.org/2000/svg" xmlns:xlink="http://www.w3.org/1999/xlink" x="0px" y="0px"
	 viewBox="0 0 502.664 502.664" style="enable-background:new 0 0 502.664 502.664;" xml:space="preserve">
<g>
	<g>
		<rect y="289.793" style="fill:#010002;" width="148.666" height="199.638"/>
		<rect x="353.998" y="238.497" style="fill:#010002;" width="148.666" height="250.933"/>
		<rect x="176.988" y="164.057" style="fill:#010002;" width="148.709" height="325.374"/>
		<path style="fill:#010002;" d="M429.474,87.243l21.053,42.71l47.154,6.859l-34.082,33.241l8.024,46.96l-42.149-22.175
			l-42.149,22.175l8.024-46.96l-34.082-33.241l47.111-6.86L429.474,87.243z"/>
		<path style="fill:#010002;" d="M252.141,13.234l21.075,42.732l47.154,6.86l-34.082,33.262l8.046,46.916l-42.171-22.153
			l-42.171,22.153l8.024-46.916l-34.082-33.262l47.132-6.86L252.141,13.234z"/>
		<path style="fill:#010002;" d="M71.744,137.05l21.053,42.732l47.154,6.881l-34.06,33.219l8.024,46.938l-42.171-22.153
			l-42.171,22.175l8.046-46.938L3.538,186.684l47.132-6.881L71.744,137.05z"/>
	</g>
	<g>
	</g>
	<g>
	</g>
	<g>
	</g>
	<g>
	</g>
	<g>
	</g>
	<g>
	</g>
	<g>
	</g>
	<g>
	</g>
	<g>
	</g>
	<g>
	</g>
	<g>
	</g>
	<g>
	</g>
	<g>
	</g>
	<g>
	</g>
	<g>
	</g>
</g>
<g>
</g>
<g>
</g>
<g>
</g>
<g>
</g>
<g>
</g>
<g>
</g>
<g>
</g>
<g>
</g>
<g>
</g>
<g>
</g>
<g>
</g>
<g>
</g>
<g>
</g>
<g>
</g>
<g>
</g>
</svg>
